<svg width="19" height="19" fill="none" xmlns="http://www.w3.org/2000/svg"><path d="M12.384 13.796l.374-.332a.5.5 0 00-.675-.068l.301.4zm1.412-1.412l-.4-.3a.5.5 0 00.068.674l.332-.374zm.044.042l-.353.354.353-.354zm3.867 3.867l.354-.354-.354.354zm0 1.414l.354.354-.354-.354zm-1.414 0l-.354.354.354-.354zm-3.867-3.867l.354-.353-.354.353zm-4.315-.118a5.611 5.611 0 005.611-5.61h-1a4.611 4.611 0 01-4.61 4.61v1zM2.5 8.112a5.611 5.611 0 005.611 5.61v-1A4.611 4.611 0 013.5 8.112h-1zM8.111 2.5A5.611 5.611 0 002.5 8.111h1A4.611 4.611 0 018.111 3.5v-1zm5.611 5.611A5.611 5.611 0 008.112 2.5v1a4.611 4.611 0 014.61 4.611h1zm-5.61 7.611a7.58 7.58 0 004.573-1.527l-.602-.799a6.58 6.58 0 01-3.972 1.326v1zM.5 8.112a7.611 7.611 0 007.611 7.61v-1A6.611 6.611 0 011.5 8.112h-1zM8.111.5A7.611 7.611 0 00.5 8.111h1A6.611 6.611 0 018.111 1.5v-1zm7.611 7.611A7.611 7.611 0 008.112.5v1a6.611 6.611 0 016.61 6.611h1zm-1.527 4.574a7.58 7.58 0 001.527-4.574h-1a6.58 6.58 0 01-1.326 3.972l.8.602zm-.73.073a.57.57 0 01.022.022l.707-.707a1.509 1.509 0 00-.067-.063l-.663.748zm.022.022l3.867 3.866.707-.707-3.867-3.866-.707.707zm3.867 3.866a.5.5 0 010 .708l.707.707a1.5 1.5 0 000-2.122l-.707.707zm0 .708a.5.5 0 01-.708 0l-.707.707a1.5 1.5 0 002.122 0l-.707-.707zm-.708 0l-3.866-3.867-.707.707 3.866 3.867.707-.707zm-3.866-3.867a.57.57 0 01-.022-.023l-.748.663c.02.023.04.045.063.067l.707-.707z" fill="#000"/></svg>